<?xml version="1.0" encoding="UTF-8" standalone="no"?>
<!-- Created with Inkscape (http://www.inkscape.org/) -->

<svg
   width="1920"
   height="1080"
   viewBox="0 0 1920 1080"
   version="1.1"
   id="svg1"
   inkscape:export-filename="logotipo.png"
   inkscape:export-xdpi="96"
   inkscape:export-ydpi="96"
   inkscape:version="1.3 (0e150ed6c4, 2023-07-21)"
   sodipodi:docname="logo.svg"
   xmlns:inkscape="http://www.inkscape.org/namespaces/inkscape"
   xmlns:sodipodi="http://sodipodi.sourceforge.net/DTD/sodipodi-0.dtd"
   xmlns="http://www.w3.org/2000/svg"
   xmlns:svg="http://www.w3.org/2000/svg">
  <sodipodi:namedview
     id="namedview1"
     pagecolor="#ffffff"
     bordercolor="#000000"
     borderopacity="0.25"
     inkscape:showpageshadow="2"
     inkscape:pageopacity="0.0"
     inkscape:pagecheckerboard="0"
     inkscape:deskcolor="#d1d1d1"
     inkscape:document-units="px"
     inkscape:zoom="0.49423818"
     inkscape:cx="944.88856"
     inkscape:cy="684.89246"
     inkscape:window-width="1920"
     inkscape:window-height="1111"
     inkscape:window-x="-9"
     inkscape:window-y="1341"
     inkscape:window-maximized="1"
     inkscape:current-layer="layer1" />
  <defs
     id="defs1">
    <clipPath
       clipPathUnits="userSpaceOnUse"
       id="clipPath3">
      <path
         d="M 0,500 H 600 V 0 H 0 Z"
         transform="translate(-89.706505,-334.50541)"
         id="path3" />
    </clipPath>
    <clipPath
       clipPathUnits="userSpaceOnUse"
       id="clipPath8">
      <path
         d="M 0,500 H 600 V 0 H 0 Z"
         transform="matrix(1.3333333,0,0,-1.3333333,0,666.66667)"
         id="path8" />
    </clipPath>
    <clipPath
       clipPathUnits="userSpaceOnUse"
       id="clipPath6">
      <path
         d="m 87.706,294.505 h 10e-4 0.989 c 20.655,0 39.659,7.695 54.115,20.389 l -24.778,31.205 c -7.309,-7.164 -17.308,-11.594 -28.326,-11.594 h -2 -40 c 0,-22.091 17.908,-40 39.999,-40"
         transform="matrix(1.3333333,0,0,-1.3333333,0,666.66667)"
         id="path6" />
    </clipPath>
    <mask
       maskUnits="userSpaceOnUse"
       x="0"
       y="0"
       width="1"
       height="1"
       id="mask3">
      <path
         id="path4"
         d="M -32768,32767 H 32767 V -32768 H -32768 Z"
         style="fill:url(#linearGradient4);stroke:none" />
    </mask>
    <linearGradient
       x1="0"
       y1="0"
       x2="1"
       y2="0"
       gradientUnits="userSpaceOnUse"
       gradientTransform="matrix(42.1978,25.846155,25.846155,-42.1978,78.115784,313.49634)"
       spreadMethod="pad"
       id="linearGradient4">
      <stop
         style="stop-opacity:1;stop-color:#ffffff"
         offset="0"
         id="stop3" />
      <stop
         style="stop-opacity:0;stop-color:#ffffff"
         offset="1"
         id="stop4" />
    </linearGradient>
    <linearGradient
       x1="0"
       y1="0"
       x2="1"
       y2="0"
       gradientUnits="userSpaceOnUse"
       gradientTransform="matrix(42.1978,25.846155,25.846155,-42.1978,78.115784,313.49634)"
       spreadMethod="pad"
       id="linearGradient6">
      <stop
         style="stop-opacity:1;stop-color:#002c6d icc-color(Adobe-RGB-1998, 0.10195923, 0.18823242, 0.41960144);"
         offset="0"
         id="stop5" />
      <stop
         style="stop-opacity:1;stop-color:#002c6d icc-color(Adobe-RGB-1998, 0.10195923, 0.18823242, 0.41960144);"
         offset="1"
         id="stop6" />
    </linearGradient>
    <linearGradient
       x1="0"
       y1="0"
       x2="1"
       y2="0"
       gradientUnits="userSpaceOnUse"
       gradientTransform="matrix(0,121.34364,-121.34364,0,481.31677,450.10249)"
       spreadMethod="pad"
       id="linearGradient9">
      <stop
         style="stop-opacity:1;stop-color:#0079c5 icc-color(Adobe-RGB-1998, 0, 0.47058105, 0.7568512);"
         offset="0"
         id="stop8" />
      <stop
         style="stop-opacity:1;stop-color:#009de3 icc-color(Adobe-RGB-1998, 0.16862488, 0.61175537, 0.87841797);"
         offset="1"
         id="stop9" />
    </linearGradient>
    <clipPath
       clipPathUnits="userSpaceOnUse"
       id="clipPath11">
      <path
         d="M 0,500 H 600 V 0 H 0 Z"
         transform="translate(-87.706105,-294.50541)"
         id="path11" />
    </clipPath>
    <clipPath
       clipPathUnits="userSpaceOnUse"
       id="clipPath13">
      <path
         d="M 0,500 H 600 V 0 H 0 Z"
         transform="translate(-87.706502,-455.49461)"
         id="path13" />
    </clipPath>
  </defs>
  <g
     inkscape:label="Capa 1"
     inkscape:groupmode="layer"
     id="layer1">
    <path
       id="path2"
       d="m 0,0 v 0 h -2 v 80.989 h 2 c 22.329,0 40.495,-18.165 40.495,-40.494 C 40.495,18.166 22.329,0 0,0 m 0,120.989 v 0 h -2 c -22.091,0 -40,-17.908 -40,-40 V 0 c 0,-22.091 17.908,-40 40,-40 h 0.989 C 43.374,-40 80.163,-4.499 80.492,39.884 80.824,84.621 44.659,120.989 0,120.989"
       style="fill:#22bded icc-color(Adobe-RGB-1998, 0.43099976, 0.73699951, 0.92199707);fill-opacity:1;fill-rule:nonzero;stroke:none"
       transform="matrix(1.3333333,0,0,-1.3333333,494.61547,539.81688)"
       clip-path="url(#clipPath3)" />
    <g
       opacity="0.600006"
       id="g8"
       clip-path="url(#clipPath8)"
       transform="translate(375.00677,319.15741)">
      <g
         mask="url(#mask3)"
         clip-path="url(#clipPath6)"
         id="g7">
        <path
           d="m 87.706,294.505 h 10e-4 0.989 c 20.655,0 39.659,7.695 54.115,20.389 l -24.778,31.205 c -7.309,-7.164 -17.308,-11.594 -28.326,-11.594 h -2 -40 c 0,-22.091 17.908,-40 39.999,-40"
           transform="matrix(1.3333333,0,0,-1.3333333,0,666.66667)"
           style="fill:url(#linearGradient6);stroke:none"
           id="path7" />
      </g>
    </g>
    <path
       id="path9"
       d="m 438.61477,431.83076 v 107.98533 c 0,29.456 23.8787,53.33467 53.3333,53.33467 v 0 0 h 1.3186 c 10.656,0 20.9747,-1.556 30.7494,-4.42 v 0 c -18.8694,-8.21467 -32.068,-27.01867 -32.068,-48.91467 v 0 -107.98533 -53.33333 c -29.4546,0 -53.3333,23.87866 -53.3333,53.33333"
       style="fill:url(#linearGradient9);stroke:none;stroke-width:1.33333" />
    <path
       id="path10"
       d="M 0,0 V 0 H 0.99 C 3.923,0 6.822,0.161 9.68,0.466 -10.763,7.176 -20,23.993 -20,40 v 115.625 c -11.952,-6.917 -20,-19.833 -20,-34.636 V 40 C -40,17.909 -22.091,0 0,0"
       style="fill:#0079c5 icc-color(Adobe-RGB-1998, 0, 0.47099304, 0.75698853);fill-opacity:1;fill-rule:nonzero;stroke:none"
       transform="matrix(1.3333333,0,0,-1.3333333,491.94827,593.15021)"
       clip-path="url(#clipPath11)" />
    <path
       id="path12"
       d="m 0,0 c -22.091,0 -40,-17.909 -40,-40 v -40 c 0,22.091 17.909,40 40,40 l 16.419,20.868 z"
       style="fill:#22bded icc-color(Adobe-RGB-1998, 0.43099976, 0.73699951, 0.92199707);fill-opacity:1;fill-rule:nonzero;stroke:none"
       transform="matrix(1.3333333,0,0,-1.3333333,491.94877,378.49794)"
       clip-path="url(#clipPath13)" />
    <text
       xml:space="preserve"
       style="font-style:normal;font-variant:normal;font-weight:normal;font-stretch:normal;font-size:266.667px;line-height:0.8;font-family:'Goudy Old Style';-inkscape-font-specification:'Goudy Old Style';text-align:center;word-spacing:0px;text-anchor:middle;fill:#666666;stroke-width:1.33417"
       x="1082.5496"
       y="548.5813"
       id="text1"><tspan
         sodipodi:role="line"
         id="tspan1"
         x="1082.5496"
         y="548.5813">ocusense</tspan></text>
  </g>
</svg>
